<?xml version="1.0" encoding="utf-8"?>
<!DOCTYPE svg PUBLIC "-//W3C//DTD SVG 1.0//EN" "http://www.w3.org/TR/2001/REC-SVG-20010904/DTD/svg10.dtd">
<svg version="1.0" xmlns="http://www.w3.org/2000/svg" width="1698px" height="948px" viewBox="0 0 1698 948" preserveAspectRatio="xMidYMid meet">
 <g fill="#0a2540">
  <path d="M906.75 759.29 l-50.35 -0.37 0 -260.50 c0 -178.93 -0.37 -260.38 -1.23 -260.01 -0.74 0.25 -4.07 6.54 -7.28 13.94 -67.01 151.04 -91.32 207.19 -133.27 307.89 -7.40 18.02 -29.12 69.97 -48.13 115.38 l-34.55 82.68 -63.06 0.37 -63.06 0.25 0.74 -2.71 c0.49 -1.60 4.94 -12.59 9.87 -24.43 4.94 -11.85 20.48 -49.36 34.55 -83.30 31.59 -76.26 94.03 -224.59 152.65 -362.18 8.88 -20.73 21.60 -50.72 28.26 -66.64 6.79 -15.92 12.71 -29.86 13.33 -30.85 0.86 -1.60 9.63 -1.85 64.79 -2.22 l63.67 -0.25 0.25 239.65 0.37 239.65 4.20 -10.98 c11.35 -30.48 124.88 -313.44 175.23 -436.84 l12.09 -29.62 66.76 -0.37 c36.77 -0.12 66.88 0.12 66.88 0.49 0 0.49 -7.77 18.88 -17.15 41.09 -39.49 92.55 -76.51 180.17 -105.38 249.39 -7.77 18.63 -23.08 55.04 -33.81 80.83 -38.38 91.07 -55.16 131.18 -68.73 164.12 -14.31 34.80 -15.18 36.65 -16.54 36.16 -0.49 -0.25 -23.45 -0.49 -51.09 -0.62z"/>
 </g>
</svg>